<?xml version="1.0" encoding="utf-8"?>
<!-- Generator: Adobe Illustrator 24.0.2, SVG Export Plug-In . SVG Version: 6.00 Build 0)  -->
<svg version="1.1" id="Capa_1" xmlns="http://www.w3.org/2000/svg" xmlns:xlink="http://www.w3.org/1999/xlink" x="0px" y="0px"
	 viewBox="0 0 350 350" style="enable-background:new 0 0 350 350;" xml:space="preserve">
<style type="text/css">
	.st0{fill:#003594;}
	.st1{fill:#307FE2;}
	.st2{fill:#FFFFFF;}
</style>
<rect x="-11" y="-10" class="st0" width="372.5" height="372.5"/>
<g>
	<g>
		<path class="st1" d="M283.4,89.5c-22.9-24.4-55.4-39.7-91.5-39.7c-29.7,0-56.9,10.3-78.4,27.6c-0.1,0.2-0.2,0.5-0.2,0.7
			c-0.1,0.2-0.1,0.4-0.1,0.7c-0.1,0.4-0.2,0.9-0.2,1.3c-0.3,1.7-0.4,3.3-0.5,5c-0.1,4.3,0.4,8.6,1.3,12.8c1.1,4.9,2.7,9.6,4.7,14.2
			c2.2,5,4.9,9.7,8.1,14.1c1.3,1.8,2.7,3.5,4.2,5.2c14-17.1,36.1-28.2,61.1-28.2c21.7,0,41.4,8.4,55.3,21.9L283.4,89.5z"/>
		<path class="st1" d="M283.4,260.5c-22.9,24.4-55.4,39.7-91.5,39.7c-29.7,0-56.9-10.3-78.4-27.6c-0.1-0.2-0.2-0.5-0.2-0.7
			c-0.1-0.2-0.1-0.4-0.1-0.6c-0.1-0.4-0.2-0.9-0.2-1.3c-0.3-1.7-0.4-3.4-0.5-5c-0.1-4.3,0.4-8.6,1.3-12.8c1.1-4.9,2.7-9.6,4.7-14.2
			c2.2-5,4.9-9.7,8.1-14.1c1.3-1.8,2.7-3.5,4.2-5.2c14,17.1,36.1,28.2,61.1,28.2c21.7,0,41.4-8.4,55.3-21.9L283.4,260.5z"/>
	</g>
	<g>
		<path class="st2" d="M180.5,168.5c-1.3-4.4-4-8.4-7.5-11.3c-5.8-4.8-13.1-5.9-19.8-8.9c-5.4-2.5-10.5-5.7-15.1-9.6
			c-2.6-2.2-5.1-4.7-7.4-7.3c-1.5-1.7-2.9-3.4-4.2-5.2c-3.2-4.4-5.9-9.1-8.1-14.1c-2-4.6-3.6-9.3-4.7-14.2
			c-0.9-4.2-1.4-8.5-1.3-12.8c0.1-1.7,0.2-3.4,0.5-5c0.1-0.4,0.2-0.9,0.2-1.3c0-0.2,0.1-0.4,0.1-0.7c0-0.2,0.1-0.5,0.2-0.7
			c-0.8,0.7-1.7,1.3-2.5,2c-2.4,2.1-4.8,4.2-7,6.4c-0.7,0.7-1.4,1.4-2.1,2.1c0,0-0.1,0.1-0.1,0.1c-0.7,0.8-1.4,1.5-2.1,2.3
			c-0.6,0.6-1.1,1.3-1.7,1.9c-0.2,0.2-0.4,0.5-0.6,0.7c-0.5,0.6-1,1.1-1.4,1.7c-0.2,0.2-0.3,0.4-0.5,0.6c-0.6,0.8-1.2,1.5-1.8,2.3
			c-0.5,0.6-1,1.3-1.5,1.9c-0.3,0.4-0.6,0.7-0.8,1.1c-0.5,0.7-1,1.4-1.5,2.1c-0.6,0.8-1.2,1.7-1.8,2.6c-0.5,0.8-1,1.5-1.5,2.3
			c-0.2,0.3-0.4,0.6-0.6,0.8c-0.4,0.6-0.7,1.1-1.1,1.7c-0.1,0.2-0.3,0.5-0.4,0.7c-0.5,0.8-1,1.7-1.5,2.5c-0.5,0.9-1,1.8-1.5,2.7
			c0,0,0,0.1,0,0.1c-0.4,0.8-0.8,1.5-1.2,2.3c-0.2,0.4-0.4,0.8-0.6,1.2c-0.2,0.5-0.5,1-0.8,1.5c-0.2,0.4-0.3,0.7-0.5,1.1
			c-0.3,0.7-0.7,1.4-1,2.2c-0.1,0.3-0.2,0.5-0.3,0.8c-0.2,0.6-0.5,1.1-0.7,1.7c-0.2,0.6-0.5,1.2-0.7,1.8c-0.2,0.4-0.3,0.9-0.5,1.3
			c-0.2,0.6-0.5,1.2-0.7,1.9c-0.1,0.4-0.3,0.8-0.4,1.1c-0.2,0.5-0.3,0.9-0.5,1.4c-0.2,0.7-0.5,1.4-0.7,2.2c-0.1,0.1-0.1,0.2-0.1,0.4
			c-0.3,0.9-0.6,1.9-0.9,2.8c-0.3,1-0.6,2.1-0.9,3.1s-0.6,2.1-0.8,3.1c-0.2,1.1-0.5,2.1-0.7,3.2c-0.2,1.1-0.4,2.1-0.6,3.2
			c-0.2,1.1-0.4,2.1-0.6,3.2c-0.2,1.1-0.3,2.2-0.5,3.3c-0.2,1.5-0.4,2.9-0.5,4.4c-0.1,0.7-0.1,1.4-0.2,2.2c-0.1,1.1-0.2,2.2-0.2,3.3
			c0,0.1,0,0.2,0,0.3c0,0.6-0.1,1.3-0.1,1.9c0,0.2,0,0.4,0,0.6c0,0.1,0,0.1,0,0.2c0,0.4,0,0.7,0,1.1c0,0.7,0,1.5,0,2.2
			c0,0,0,0.1,0,0.1c0,0,0,0.1,0,0.1c0,0.7,0,1.5,0,2.2c0,0.4,0,0.7,0,1.1c0,0.1,0,0.1,0,0.2c0,0.2,0,0.4,0,0.6
			c0,0.6,0.1,1.3,0.1,1.9c0,0.1,0,0.2,0,0.3c0.1,1.1,0.1,2.2,0.2,3.3c0.1,0.7,0.1,1.4,0.2,2.2c0.1,1.5,0.3,3,0.5,4.4
			c0.1,1.1,0.3,2.2,0.5,3.3c0.2,1.1,0.4,2.2,0.6,3.2c0.2,1.1,0.4,2.1,0.6,3.2c0.2,1.1,0.5,2.1,0.7,3.2s0.5,2.1,0.8,3.1
			c0.3,1,0.6,2.1,0.9,3.1c0.3,0.9,0.6,1.9,0.9,2.8c0,0.1,0.1,0.2,0.1,0.4c0.2,0.7,0.5,1.4,0.7,2.2c0.2,0.5,0.3,0.9,0.5,1.4
			c0.1,0.4,0.3,0.8,0.4,1.1c0.2,0.6,0.5,1.3,0.7,1.9c0.2,0.4,0.3,0.9,0.5,1.3c0.2,0.6,0.5,1.2,0.7,1.8c0.2,0.6,0.5,1.1,0.7,1.6
			c0.1,0.3,0.2,0.5,0.3,0.8c0.3,0.7,0.7,1.5,1,2.2c0.2,0.4,0.3,0.7,0.5,1.1c0.2,0.5,0.5,1,0.8,1.5c0.2,0.4,0.4,0.8,0.6,1.2
			c0.4,0.8,0.8,1.5,1.2,2.3c0,0,0,0,0,0.1c0.5,0.9,1,1.8,1.5,2.7c0.5,0.9,1,1.7,1.5,2.5c0.1,0.2,0.3,0.5,0.4,0.7
			c0.3,0.6,0.7,1.1,1.1,1.7c0.2,0.3,0.4,0.6,0.6,0.9c0.5,0.8,1,1.5,1.5,2.3c0.6,0.9,1.2,1.7,1.8,2.6c0.5,0.7,1,1.4,1.5,2.1
			c0.2,0.4,0.5,0.7,0.8,1.1c0.5,0.6,1,1.3,1.5,1.9c0.6,0.8,1.2,1.5,1.8,2.3c0.2,0.2,0.3,0.4,0.5,0.6c0.5,0.6,0.9,1.1,1.4,1.7
			c0.2,0.2,0.4,0.5,0.6,0.7c0.6,0.6,1.1,1.3,1.7,1.9c0.7,0.8,1.4,1.5,2.1,2.3c0,0,0,0,0.1,0.1c0.7,0.7,1.4,1.4,2.1,2.1
			c2.3,2.2,4.6,4.4,7,6.4c0.8,0.7,1.7,1.3,2.5,2c-0.1-0.2-0.2-0.5-0.2-0.7c-0.1-0.2-0.1-0.4-0.1-0.6c-0.1-0.4-0.2-0.9-0.2-1.3
			c-0.3-1.7-0.4-3.4-0.5-5c-0.1-4.3,0.4-8.6,1.3-12.8c1.1-4.9,2.7-9.6,4.7-14.2c2.2-5,4.9-9.7,8.1-14.1c1.3-1.8,2.7-3.5,4.2-5.2
			c2.3-2.6,4.7-5.1,7.4-7.3c4.6-3.9,9.6-7.1,15.1-9.6c6.7-3,14-4.1,19.8-8.9c3.6-2.9,6.3-6.9,7.5-11.3c0.6-2.1,0.9-4.3,0.8-6.5
			C181.4,172.8,181.1,170.6,180.5,168.5z"/>
		<path class="st2" d="M221.5,150.8c-14.2,0.2-25.1,9.9-25.1,24.1c0,0,0,0,0,0c0,14.4,10.9,24.3,25.1,24.3
			c14.2,0,25.6-9.9,25.6-24.3C247.1,160.7,235.7,150.6,221.5,150.8z"/>
	</g>
</g>
</svg>
