<svg width="146" height="42" viewBox="0 0 146 42" fill="none" xmlns="http://www.w3.org/2000/svg">
<rect x="4.83447" width="136.331" height="42" fill="#344955"/>
<path d="M11.7363 27L8.39625 17.08H11.3563L12.6363 21.76C12.7696 22.2533 12.8963 22.7533 13.0163 23.26C13.1496 23.7667 13.2829 24.2867 13.4163 24.82H13.4963C13.6163 24.2867 13.7429 23.7667 13.8763 23.26C14.0096 22.7533 14.1363 22.2533 14.2563 21.76L15.5563 17.08H18.3763L15.1363 27H11.7363ZM22.0344 27.24C21.4344 27.24 20.9077 27.1067 20.4544 26.84C20.0144 26.5733 19.6744 26.2133 19.4344 25.76C19.1944 25.3067 19.0744 24.8 19.0744 24.24C19.0744 23.1733 19.5144 22.3533 20.3944 21.78C21.2744 21.1933 22.6944 20.8 24.6544 20.6C24.641 20.3067 24.5744 20.06 24.4544 19.86C24.3477 19.6467 24.181 19.4867 23.9544 19.38C23.7277 19.26 23.441 19.2 23.0944 19.2C22.681 19.2 22.261 19.2733 21.8344 19.42C21.4077 19.5667 20.9477 19.78 20.4544 20.06L19.4144 18.14C19.841 17.8733 20.281 17.6467 20.7344 17.46C21.1877 17.26 21.6544 17.1067 22.1344 17C22.6277 16.8933 23.1344 16.84 23.6544 16.84C24.5077 16.84 25.221 17.0067 25.7944 17.34C26.381 17.66 26.8277 18.1533 27.1344 18.82C27.441 19.4733 27.5944 20.3133 27.5944 21.34V27H25.1944L24.9944 25.98H24.9144C24.4877 26.3533 24.041 26.66 23.5744 26.9C23.1077 27.1267 22.5944 27.24 22.0344 27.24ZM23.0144 24.94C23.3477 24.94 23.641 24.8667 23.8944 24.72C24.1477 24.5733 24.401 24.3733 24.6544 24.12V22.44C23.961 22.5333 23.4077 22.6533 22.9944 22.8C22.5944 22.9467 22.3077 23.1267 22.1344 23.34C21.9744 23.54 21.8944 23.7667 21.8944 24.02C21.8944 24.3267 21.9944 24.56 22.1944 24.72C22.4077 24.8667 22.681 24.94 23.0144 24.94ZM32.7813 27.22C32.1146 27.22 31.5813 27.0867 31.1813 26.82C30.7946 26.54 30.5146 26.1533 30.3413 25.66C30.1679 25.1533 30.0813 24.5667 30.0813 23.9V13H33.0213V24.02C33.0213 24.34 33.0746 24.56 33.1813 24.68C33.3013 24.7867 33.4279 24.84 33.5613 24.84C33.6146 24.84 33.6613 24.84 33.7013 24.84C33.7546 24.8267 33.8213 24.8133 33.9013 24.8L34.2613 26.98C34.1013 27.0467 33.8946 27.1 33.6413 27.14C33.4013 27.1933 33.1146 27.22 32.7813 27.22ZM38.7839 27.24C37.7039 27.24 36.9172 26.8867 36.4239 26.18C35.9439 25.46 35.7039 24.48 35.7039 23.24V17.08H38.6439V22.86C38.6439 23.58 38.7439 24.0733 38.9439 24.34C39.1439 24.6067 39.4572 24.74 39.8839 24.74C40.2439 24.74 40.5572 24.6533 40.8239 24.48C41.0906 24.3067 41.3639 24.0267 41.6439 23.64V17.08H44.5839V27H42.1839L41.9639 25.62H41.9039C41.4906 26.1133 41.0372 26.5067 40.5439 26.8C40.0506 27.0933 39.4639 27.24 38.7839 27.24ZM49.6711 27.24C49.0711 27.24 48.5444 27.1067 48.0911 26.84C47.6511 26.5733 47.3111 26.2133 47.0711 25.76C46.8311 25.3067 46.7111 24.8 46.7111 24.24C46.7111 23.1733 47.1511 22.3533 48.0311 21.78C48.9111 21.1933 50.3311 20.8 52.2911 20.6C52.2778 20.3067 52.2111 20.06 52.0911 19.86C51.9844 19.6467 51.8178 19.4867 51.5911 19.38C51.3644 19.26 51.0778 19.2 50.7311 19.2C50.3178 19.2 49.8978 19.2733 49.4711 19.42C49.0444 19.5667 48.5844 19.78 48.0911 20.06L47.0511 18.14C47.4778 17.8733 47.9178 17.6467 48.3711 17.46C48.8244 17.26 49.2911 17.1067 49.7711 17C50.2644 16.8933 50.7711 16.84 51.2911 16.84C52.1444 16.84 52.8578 17.0067 53.4311 17.34C54.0178 17.66 54.4644 18.1533 54.7711 18.82C55.0778 19.4733 55.2311 20.3133 55.2311 21.34V27H52.8311L52.6311 25.98H52.5511C52.1244 26.3533 51.6778 26.66 51.2111 26.9C50.7444 27.1267 50.2311 27.24 49.6711 27.24ZM50.6511 24.94C50.9844 24.94 51.2778 24.8667 51.5311 24.72C51.7844 24.5733 52.0378 24.3733 52.2911 24.12V22.44C51.5978 22.5333 51.0444 22.6533 50.6311 22.8C50.2311 22.9467 49.9444 23.1267 49.7711 23.34C49.6111 23.54 49.5311 23.7667 49.5311 24.02C49.5311 24.3267 49.6311 24.56 49.8311 24.72C50.0444 24.8667 50.3178 24.94 50.6511 24.94ZM61.1864 27.22C59.9597 27.22 59.0797 26.8667 58.5464 26.16C58.0131 25.44 57.7464 24.5133 57.7464 23.38V19.38H56.4064V17.2L57.9264 17.08L58.2664 14.04H60.7064V17.08H63.0864V19.38H60.7064V23.34C60.7064 23.9 60.8197 24.3067 61.0464 24.56C61.2864 24.8 61.5997 24.92 61.9864 24.92C62.1464 24.92 62.3064 24.9067 62.4664 24.88C62.6264 24.8533 62.7797 24.8133 62.9264 24.76L63.4064 26.82C63.1531 26.9267 62.8331 27.02 62.4464 27.1C62.0731 27.18 61.6531 27.22 61.1864 27.22ZM65.0227 27V17.08H67.9627V27H65.0227ZM66.4827 15.62C65.9893 15.62 65.5893 15.48 65.2827 15.2C64.976 14.92 64.8227 14.5467 64.8227 14.08C64.8227 13.6133 64.976 13.24 65.2827 12.96C65.5893 12.68 65.9893 12.54 66.4827 12.54C66.976 12.54 67.376 12.68 67.6827 12.96C67.9893 13.24 68.1427 13.6133 68.1427 14.08C68.1427 14.5467 67.9893 14.92 67.6827 15.2C67.376 15.48 66.976 15.62 66.4827 15.62ZM74.81 27.24C73.97 27.24 73.1833 27.04 72.45 26.64C71.7167 26.2267 71.1167 25.6333 70.65 24.86C70.1967 24.0733 69.97 23.1333 69.97 22.04C69.97 20.9467 70.1967 20.0133 70.65 19.24C71.1167 18.4533 71.7167 17.86 72.45 17.46C73.1833 17.0467 73.97 16.84 74.81 16.84C75.6367 16.84 76.4167 17.0467 77.15 17.46C77.8833 17.86 78.4767 18.4533 78.93 19.24C79.3967 20.0133 79.63 20.9467 79.63 22.04C79.63 23.1333 79.3967 24.0733 78.93 24.86C78.4767 25.6333 77.8833 26.2267 77.15 26.64C76.4167 27.04 75.6367 27.24 74.81 27.24ZM74.81 24.86C75.21 24.86 75.5433 24.7467 75.81 24.52C76.09 24.2933 76.2967 23.9667 76.43 23.54C76.5633 23.1133 76.63 22.6133 76.63 22.04C76.63 21.4667 76.5633 20.9667 76.43 20.54C76.2967 20.1133 76.09 19.7867 75.81 19.56C75.5433 19.3333 75.21 19.22 74.81 19.22C74.3967 19.22 74.0567 19.3333 73.79 19.56C73.5233 19.7867 73.3233 20.1133 73.19 20.54C73.0567 20.9667 72.99 21.4667 72.99 22.04C72.99 22.6133 73.0567 23.1133 73.19 23.54C73.3233 23.9667 73.5233 24.2933 73.79 24.52C74.0567 24.7467 74.3967 24.86 74.81 24.86ZM81.6438 27V17.08H84.0438L84.2438 18.34H84.3238C84.7371 17.9267 85.2038 17.5733 85.7238 17.28C86.2438 16.9867 86.8371 16.84 87.5038 16.84C88.5971 16.84 89.3838 17.2 89.8638 17.92C90.3438 18.6267 90.5838 19.6 90.5838 20.84V27H87.6438V21.22C87.6438 20.5 87.5438 20.0067 87.3438 19.74C87.1571 19.4733 86.8504 19.34 86.4238 19.34C86.0504 19.34 85.7304 19.4267 85.4638 19.6C85.1971 19.76 84.9038 19.9933 84.5838 20.3V27H81.6438ZM96.0091 27.24C95.3557 27.24 94.6824 27.1133 93.9891 26.86C93.2957 26.6067 92.7024 26.24 92.2091 25.76L93.4491 24.1C93.9024 24.46 94.3491 24.7133 94.7891 24.86C95.2424 24.9933 95.6757 25.06 96.0891 25.06C96.5291 25.06 96.8491 24.9867 97.0491 24.84C97.2491 24.68 97.3491 24.4733 97.3491 24.22C97.3491 23.9933 97.2557 23.8067 97.0691 23.66C96.8957 23.5133 96.6624 23.3867 96.3691 23.28C96.0891 23.16 95.7691 23.0333 95.4091 22.9C94.9291 22.7267 94.4891 22.5067 94.0891 22.24C93.6891 21.9733 93.3624 21.6533 93.1091 21.28C92.8691 20.9067 92.7491 20.46 92.7491 19.94C92.7491 19.0067 93.0957 18.26 93.7891 17.7C94.4957 17.1267 95.4157 16.84 96.5491 16.84C97.2691 16.84 97.9224 16.96 98.5091 17.2C99.1091 17.4267 99.6224 17.7267 100.049 18.1L98.7891 19.74C98.4291 19.4867 98.0691 19.3067 97.7091 19.2C97.3491 19.08 96.9957 19.02 96.6491 19.02C96.2624 19.02 95.9757 19.0933 95.7891 19.24C95.6024 19.3867 95.5091 19.5733 95.5091 19.8C95.5091 19.9867 95.5757 20.1467 95.7091 20.28C95.8424 20.4133 96.0424 20.54 96.3091 20.66C96.5891 20.7667 96.9357 20.8867 97.3491 21.02C97.8557 21.1933 98.3157 21.4133 98.7291 21.68C99.1557 21.9333 99.4891 22.2533 99.7291 22.64C99.9691 23.0267 100.089 23.4933 100.089 24.04C100.089 24.64 99.9291 25.18 99.6091 25.66C99.3024 26.14 98.8491 26.5267 98.2491 26.82C97.6491 27.1 96.9024 27.24 96.0091 27.24Z" fill="#F9AA33"/>
<path d="M103.616 27L101.136 17.08H104.076L105.016 21.68C105.11 22.1467 105.19 22.6267 105.256 23.12C105.323 23.6 105.39 24.1133 105.456 24.66H105.536C105.63 24.1133 105.716 23.5933 105.796 23.1C105.89 22.6067 105.99 22.1333 106.096 21.68L107.136 17.08H109.816L110.916 21.68C111.023 22.1467 111.123 22.6267 111.216 23.12C111.31 23.6 111.403 24.1133 111.496 24.66H111.576C111.67 24.1133 111.743 23.6 111.796 23.12C111.863 22.6267 111.936 22.1467 112.016 21.68L112.956 17.08H115.696L113.316 27H109.776L108.936 23.04C108.856 22.5867 108.77 22.1333 108.676 21.68C108.596 21.2133 108.516 20.68 108.436 20.08H108.356C108.303 20.68 108.236 21.2133 108.156 21.68C108.076 22.1333 107.99 22.5867 107.896 23.04L107.076 27H103.616ZM121.767 27.24C120.821 27.24 119.967 27.0333 119.207 26.62C118.447 26.2067 117.847 25.6133 117.407 24.84C116.967 24.0667 116.747 23.1333 116.747 22.04C116.747 20.96 116.967 20.0333 117.407 19.26C117.861 18.4867 118.447 17.8933 119.167 17.48C119.887 17.0533 120.641 16.84 121.427 16.84C122.374 16.84 123.161 17.0533 123.787 17.48C124.414 17.8933 124.881 18.46 125.187 19.18C125.494 19.9 125.647 20.7067 125.647 21.6C125.647 21.8533 125.634 22.1067 125.607 22.36C125.581 22.6 125.554 22.7933 125.527 22.94H119.027L118.987 20.9H123.127C123.127 20.38 123.001 19.9533 122.747 19.62C122.494 19.2733 122.074 19.1 121.487 19.1C121.167 19.1 120.854 19.1867 120.547 19.36C120.241 19.5333 119.987 19.8333 119.787 20.26C119.587 20.6867 119.494 21.28 119.507 22.04C119.521 22.7867 119.654 23.3733 119.907 23.8C120.174 24.2267 120.507 24.5333 120.907 24.72C121.307 24.8933 121.727 24.98 122.167 24.98C122.554 24.98 122.921 24.9267 123.267 24.82C123.627 24.7 123.981 24.54 124.327 24.34L125.287 26.14C124.794 26.4867 124.234 26.76 123.607 26.96C122.981 27.1467 122.367 27.24 121.767 27.24ZM132.879 27.24C132.439 27.24 131.999 27.1333 131.559 26.92C131.119 26.6933 130.699 26.3667 130.299 25.94H130.219L129.979 27H127.679V12.98H130.619V16.42L130.539 17.94C130.912 17.5933 131.326 17.3267 131.779 17.14C132.232 16.94 132.692 16.84 133.159 16.84C133.959 16.84 134.652 17.0467 135.239 17.46C135.826 17.8733 136.272 18.46 136.579 19.22C136.899 19.9667 137.059 20.8467 137.059 21.86C137.059 22.9933 136.859 23.9667 136.459 24.78C136.059 25.58 135.539 26.1933 134.899 26.62C134.272 27.0333 133.599 27.24 132.879 27.24ZM132.199 24.84C132.532 24.84 132.839 24.74 133.119 24.54C133.412 24.34 133.639 24.0267 133.799 23.6C133.959 23.16 134.039 22.6 134.039 21.92C134.039 21.32 133.972 20.8267 133.839 20.44C133.719 20.04 133.532 19.74 133.279 19.54C133.026 19.34 132.706 19.24 132.319 19.24C132.026 19.24 131.739 19.3133 131.459 19.46C131.192 19.5933 130.912 19.82 130.619 20.14V24.2C130.872 24.4267 131.139 24.5933 131.419 24.7C131.699 24.7933 131.959 24.84 132.199 24.84Z" fill="white"/>
<path d="M19.7796 38V32.58C19.7796 32.24 19.833 31.9367 19.9396 31.67C20.053 31.4033 20.2296 31.1967 20.4696 31.05C20.7096 30.8967 21.023 30.82 21.4096 30.82C21.5896 30.82 21.7563 30.8367 21.9096 30.87C22.0696 30.9033 22.203 30.9433 22.3096 30.99L22.0696 31.82C21.8963 31.76 21.723 31.73 21.5496 31.73C21.3496 31.73 21.1963 31.7967 21.0896 31.93C20.983 32.0633 20.9296 32.2733 20.9296 32.56V38H19.7796ZM19.0496 34V33.14L19.8496 33.09H21.8896V34H19.0496ZM22.7535 38V33.09H23.9035V38H22.7535ZM23.3235 32.23C23.1235 32.23 22.9568 32.17 22.8235 32.05C22.6968 31.93 22.6335 31.77 22.6335 31.57C22.6335 31.37 22.6968 31.2133 22.8235 31.1C22.9568 30.98 23.1235 30.92 23.3235 30.92C23.5301 30.92 23.6968 30.98 23.8235 31.1C23.9501 31.2133 24.0135 31.37 24.0135 31.57C24.0135 31.77 23.9501 31.93 23.8235 32.05C23.6968 32.17 23.5301 32.23 23.3235 32.23ZM25.3707 38V33.09H26.3207L26.4007 33.75H26.4407C26.6607 33.5367 26.9007 33.3533 27.1607 33.2C27.4207 33.0467 27.7173 32.97 28.0507 32.97C28.5773 32.97 28.9607 33.14 29.2007 33.48C29.4407 33.82 29.5607 34.3 29.5607 34.92V38H28.4107V35.07C28.4107 34.6633 28.3507 34.3767 28.2307 34.21C28.1107 34.0433 27.914 33.96 27.6407 33.96C27.4273 33.96 27.2373 34.0133 27.0707 34.12C26.9107 34.22 26.7273 34.37 26.5207 34.57V38H25.3707ZM32.6864 38.12C32.073 38.12 31.583 37.8933 31.2164 37.44C30.8497 36.9867 30.6664 36.3567 30.6664 35.55C30.6664 35.0167 30.763 34.5567 30.9564 34.17C31.1564 33.7833 31.413 33.4867 31.7264 33.28C32.0464 33.0733 32.3864 32.97 32.7464 32.97C33.0264 32.97 33.263 33.0167 33.4564 33.11C33.6564 33.2033 33.8497 33.3367 34.0364 33.51L33.9964 32.72V30.94H35.1464V38H34.1964L34.1164 37.47H34.0764C33.8964 37.65 33.6864 37.8033 33.4464 37.93C33.2064 38.0567 32.953 38.12 32.6864 38.12ZM32.9664 37.17C33.1597 37.17 33.3397 37.1267 33.5064 37.04C33.673 36.9467 33.8364 36.8067 33.9964 36.62V34.33C33.8297 34.1767 33.663 34.07 33.4964 34.01C33.3297 33.95 33.163 33.92 32.9964 33.92C32.783 33.92 32.5897 33.9833 32.4164 34.11C32.2497 34.2367 32.113 34.42 32.0064 34.66C31.9064 34.9 31.8564 35.1933 31.8564 35.54C31.8564 36.0667 31.953 36.47 32.1464 36.75C32.3397 37.03 32.613 37.17 32.9664 37.17ZM36.6109 38V33.09H37.7609V38H36.6109ZM37.1809 32.23C36.9809 32.23 36.8142 32.17 36.6809 32.05C36.5542 31.93 36.4909 31.77 36.4909 31.57C36.4909 31.37 36.5542 31.2133 36.6809 31.1C36.8142 30.98 36.9809 30.92 37.1809 30.92C37.3876 30.92 37.5542 30.98 37.6809 31.1C37.8076 31.2133 37.8709 31.37 37.8709 31.57C37.8709 31.77 37.8076 31.93 37.6809 32.05C37.5542 32.17 37.3876 32.23 37.1809 32.23ZM39.2281 38V33.09H40.1781L40.2581 33.75H40.2981C40.5181 33.5367 40.7581 33.3533 41.0181 33.2C41.2781 33.0467 41.5747 32.97 41.9081 32.97C42.4347 32.97 42.8181 33.14 43.0581 33.48C43.2981 33.82 43.4181 34.3 43.4181 34.92V38H42.2681V35.07C42.2681 34.6633 42.2081 34.3767 42.0881 34.21C41.9681 34.0433 41.7714 33.96 41.4981 33.96C41.2847 33.96 41.0947 34.0133 40.9281 34.12C40.7681 34.22 40.5847 34.37 40.3781 34.57V38H39.2281ZM46.5338 40.17C46.1405 40.17 45.7905 40.1233 45.4838 40.03C45.1771 39.9367 44.9338 39.7933 44.7538 39.6C44.5805 39.4133 44.4938 39.1767 44.4938 38.89C44.4938 38.6833 44.5538 38.49 44.6738 38.31C44.8005 38.1367 44.9738 37.98 45.1938 37.84V37.8C45.0738 37.72 44.9705 37.6133 44.8838 37.48C44.7971 37.3467 44.7538 37.18 44.7538 36.98C44.7538 36.7933 44.8071 36.62 44.9138 36.46C45.0271 36.3 45.1538 36.17 45.2938 36.07V36.03C45.1271 35.9033 44.9771 35.7267 44.8438 35.5C44.7171 35.2733 44.6538 35.0167 44.6538 34.73C44.6538 34.3567 44.7438 34.04 44.9238 33.78C45.1038 33.5133 45.3405 33.3133 45.6338 33.18C45.9271 33.04 46.2471 32.97 46.5938 32.97C46.7271 32.97 46.8571 32.98 46.9838 33C47.1105 33.02 47.2205 33.05 47.3138 33.09H49.0738V33.94H48.1538V33.98C48.2471 34.08 48.3205 34.1967 48.3738 34.33C48.4271 34.4567 48.4538 34.6067 48.4538 34.78C48.4538 35.14 48.3705 35.4433 48.2038 35.69C48.0371 35.9367 47.8138 36.1233 47.5338 36.25C47.2538 36.3767 46.9405 36.44 46.5938 36.44C46.4871 36.44 46.3771 36.43 46.2638 36.41C46.1505 36.39 46.0371 36.3567 45.9238 36.31C45.8571 36.3767 45.8005 36.4433 45.7538 36.51C45.7071 36.5767 45.6838 36.6667 45.6838 36.78C45.6838 36.92 45.7438 37.03 45.8638 37.11C45.9838 37.19 46.1905 37.23 46.4838 37.23H47.3538C47.9471 37.23 48.3938 37.3267 48.6938 37.52C49.0005 37.7067 49.1538 38.0133 49.1538 38.44C49.1538 38.76 49.0471 39.05 48.8338 39.31C48.6205 39.5767 48.3171 39.7867 47.9238 39.94C47.5305 40.0933 47.0671 40.17 46.5338 40.17ZM46.5938 35.72C46.7471 35.72 46.8871 35.6833 47.0138 35.61C47.1471 35.53 47.2505 35.4167 47.3238 35.27C47.4038 35.1167 47.4438 34.9367 47.4438 34.73C47.4438 34.4167 47.3605 34.1767 47.1938 34.01C47.0338 33.8433 46.8338 33.76 46.5938 33.76C46.3538 33.76 46.1505 33.8433 45.9838 34.01C45.8171 34.1767 45.7338 34.4167 45.7338 34.73C45.7338 34.9367 45.7738 35.1167 45.8538 35.27C45.9338 35.4167 46.0371 35.53 46.1638 35.61C46.2905 35.6833 46.4338 35.72 46.5938 35.72ZM46.7138 39.42C46.9738 39.42 47.2038 39.3833 47.4038 39.31C47.6038 39.2433 47.7605 39.1467 47.8738 39.02C47.9871 38.9 48.0438 38.77 48.0438 38.63C48.0438 38.4367 47.9671 38.3067 47.8138 38.24C47.6671 38.1733 47.4538 38.14 47.1738 38.14H46.5038C46.3705 38.14 46.2505 38.1333 46.1438 38.12C46.0371 38.1067 45.9338 38.09 45.8338 38.07C45.7071 38.17 45.6105 38.2733 45.5438 38.38C45.4838 38.4867 45.4538 38.6 45.4538 38.72C45.4538 38.94 45.5671 39.11 45.7938 39.23C46.0205 39.3567 46.3271 39.42 46.7138 39.42ZM53.7511 38.1C53.1844 38.1 52.7811 37.9367 52.541 37.61C52.3077 37.2767 52.191 36.8467 52.191 36.32V34H51.491V33.14L52.251 33.09L52.3911 31.55H53.3511V33.09H54.6011V34H53.3511V36.32C53.3511 36.6067 53.4077 36.8233 53.5211 36.97C53.6344 37.11 53.8077 37.18 54.0411 37.18C54.1277 37.18 54.2144 37.1733 54.3011 37.16C54.3877 37.1467 54.4711 37.12 54.5511 37.08L54.761 37.89C54.6344 37.95 54.4844 38 54.3111 38.04C54.1377 38.08 53.9511 38.1 53.7511 38.1ZM55.6343 38V30.94H56.7843V32.76L56.7443 33.71C56.951 33.5167 57.181 33.3467 57.4343 33.2C57.6877 33.0467 57.981 32.97 58.3143 32.97C58.841 32.97 59.2243 33.14 59.4643 33.48C59.7043 33.82 59.8243 34.3 59.8243 34.92V38H58.6743V35.07C58.6743 34.6633 58.6143 34.3767 58.4943 34.21C58.3743 34.0433 58.1777 33.96 57.9043 33.96C57.691 33.96 57.501 34.0133 57.3343 34.12C57.1743 34.22 56.991 34.37 56.7843 34.57V38H55.6343ZM63.3205 38.12C62.8605 38.12 62.4438 38.02 62.0705 37.82C61.7038 37.6133 61.4138 37.32 61.2005 36.94C60.9872 36.5533 60.8805 36.0867 60.8805 35.54C60.8805 35.0067 60.9905 34.55 61.2105 34.17C61.4305 33.7833 61.7138 33.4867 62.0605 33.28C62.4072 33.0733 62.7738 32.97 63.1605 32.97C63.6072 32.97 63.9805 33.07 64.2805 33.27C64.5805 33.47 64.8038 33.7467 64.9505 34.1C65.1038 34.4467 65.1805 34.8467 65.1805 35.3C65.1805 35.4067 65.1738 35.51 65.1605 35.61C65.1538 35.71 65.1405 35.8067 65.1205 35.9H61.7405V35.02H64.1605C64.1605 34.6667 64.0805 34.39 63.9205 34.19C63.7605 33.9833 63.5138 33.88 63.1805 33.88C62.9938 33.88 62.8105 33.93 62.6305 34.03C62.4572 34.13 62.3105 34.3 62.1905 34.54C62.0772 34.78 62.0205 35.1133 62.0205 35.54C62.0205 35.9267 62.0872 36.2433 62.2205 36.49C62.3538 36.73 62.5305 36.91 62.7505 37.03C62.9705 37.1433 63.2072 37.2 63.4605 37.2C63.6738 37.2 63.8738 37.17 64.0605 37.11C64.2538 37.05 64.4338 36.9667 64.6005 36.86L65.0005 37.6C64.7738 37.76 64.5138 37.8867 64.2205 37.98C63.9338 38.0733 63.6338 38.12 63.3205 38.12ZM68.2808 38V33.09H69.4308V38H68.2808ZM68.8508 32.23C68.6508 32.23 68.4841 32.17 68.3508 32.05C68.2241 31.93 68.1608 31.77 68.1608 31.57C68.1608 31.37 68.2241 31.2133 68.3508 31.1C68.4841 30.98 68.6508 30.92 68.8508 30.92C69.0575 30.92 69.2241 30.98 69.3508 31.1C69.4775 31.2133 69.5408 31.37 69.5408 31.57C69.5408 31.77 69.4775 31.93 69.3508 32.05C69.2241 32.17 69.0575 32.23 68.8508 32.23ZM70.898 38V33.09H71.848L71.928 33.75H71.968C72.188 33.5367 72.428 33.3533 72.688 33.2C72.948 33.0467 73.2447 32.97 73.578 32.97C74.1047 32.97 74.488 33.14 74.728 33.48C74.968 33.82 75.088 34.3 75.088 34.92V38H73.938V35.07C73.938 34.6633 73.878 34.3767 73.758 34.21C73.638 34.0433 73.4413 33.96 73.168 33.96C72.9547 33.96 72.7647 34.0133 72.598 34.12C72.438 34.22 72.2547 34.37 72.048 34.57V38H70.898ZM78.2237 38.1C77.657 38.1 77.2537 37.9367 77.0137 37.61C76.7804 37.2767 76.6637 36.8467 76.6637 36.32V34H75.9637V33.14L76.7237 33.09L76.8637 31.55H77.8237V33.09H79.0737V34H77.8237V36.32C77.8237 36.6067 77.8804 36.8233 77.9937 36.97C78.107 37.11 78.2804 37.18 78.5137 37.18C78.6004 37.18 78.687 37.1733 78.7737 37.16C78.8604 37.1467 78.9437 37.12 79.0237 37.08L79.2337 37.89C79.107 37.95 78.957 38 78.7837 38.04C78.6104 38.08 78.4237 38.1 78.2237 38.1ZM80.107 38V33.09H81.057L81.137 33.96H81.177C81.3503 33.64 81.557 33.3967 81.797 33.23C82.0437 33.0567 82.3003 32.97 82.567 32.97C82.6937 32.97 82.8003 32.9767 82.887 32.99C82.9737 33.0033 83.0537 33.03 83.127 33.07L82.897 34.05C82.817 34.03 82.7437 34.0167 82.677 34.01C82.6103 33.9967 82.5237 33.99 82.417 33.99C82.2237 33.99 82.0203 34.0667 81.807 34.22C81.5937 34.3667 81.4103 34.6267 81.257 35V38H80.107ZM83.8375 38V33.09H84.9875V38H83.8375ZM84.4075 32.23C84.2075 32.23 84.0408 32.17 83.9075 32.05C83.7808 31.93 83.7175 31.77 83.7175 31.57C83.7175 31.37 83.7808 31.2133 83.9075 31.1C84.0408 30.98 84.2075 30.92 84.4075 30.92C84.6141 30.92 84.7808 30.98 84.9075 31.1C85.0341 31.2133 85.0975 31.37 85.0975 31.57C85.0975 31.77 85.0341 31.93 84.9075 32.05C84.7808 32.17 84.6141 32.23 84.4075 32.23ZM86.4546 38V33.09H87.4046L87.4846 33.75H87.5246C87.7446 33.5367 87.9846 33.3533 88.2446 33.2C88.5046 33.0467 88.8013 32.97 89.1346 32.97C89.6613 32.97 90.0446 33.14 90.2846 33.48C90.5246 33.82 90.6446 34.3 90.6446 34.92V38H89.4946V35.07C89.4946 34.6633 89.4346 34.3767 89.3146 34.21C89.1946 34.0433 88.998 33.96 88.7246 33.96C88.5113 33.96 88.3213 34.0133 88.1546 34.12C87.9946 34.22 87.8113 34.37 87.6046 34.57V38H86.4546ZM93.4203 38.12C93.0803 38.12 92.7437 38.0567 92.4103 37.93C92.0837 37.8033 91.8003 37.6267 91.5603 37.4L92.0703 36.74C92.2903 36.92 92.5137 37.05 92.7403 37.13C92.967 37.21 93.207 37.25 93.4603 37.25C93.727 37.25 93.9237 37.1933 94.0503 37.08C94.177 36.9667 94.2403 36.8267 94.2403 36.66C94.2403 36.5267 94.1903 36.4133 94.0903 36.32C93.997 36.2267 93.8737 36.1467 93.7203 36.08C93.567 36.0133 93.397 35.9467 93.2103 35.88C92.9703 35.7933 92.747 35.69 92.5403 35.57C92.3337 35.4433 92.1637 35.29 92.0303 35.11C91.9037 34.9233 91.8403 34.7 91.8403 34.44C91.8403 34.0067 92.0003 33.6533 92.3203 33.38C92.6403 33.1067 93.0737 32.97 93.6203 32.97C93.9537 32.97 94.2603 33.0267 94.5403 33.14C94.8203 33.2467 95.0603 33.3867 95.2603 33.56L94.7503 34.21C94.577 34.0833 94.4003 33.99 94.2203 33.93C94.0403 33.87 93.8503 33.84 93.6503 33.84C93.4037 33.84 93.2203 33.8933 93.1003 34C92.9803 34.1067 92.9203 34.2333 92.9203 34.38C92.9203 34.5 92.957 34.6033 93.0303 34.69C93.1103 34.77 93.2237 34.8433 93.3703 34.91C93.517 34.97 93.6937 35.0333 93.9003 35.1C94.1537 35.1867 94.3903 35.2933 94.6103 35.42C94.8303 35.54 95.0037 35.6967 95.1303 35.89C95.2637 36.0767 95.3303 36.3133 95.3303 36.6C95.3303 36.88 95.257 37.1367 95.1103 37.37C94.9637 37.5967 94.747 37.78 94.4603 37.92C94.1803 38.0533 93.8337 38.12 93.4203 38.12ZM96.357 38V33.09H97.507V38H96.357ZM96.927 32.23C96.727 32.23 96.5603 32.17 96.427 32.05C96.3003 31.93 96.237 31.77 96.237 31.57C96.237 31.37 96.3003 31.2133 96.427 31.1C96.5603 30.98 96.727 30.92 96.927 30.92C97.1337 30.92 97.3003 30.98 97.427 31.1C97.5537 31.2133 97.617 31.37 97.617 31.57C97.617 31.77 97.5537 31.93 97.427 32.05C97.3003 32.17 97.1337 32.23 96.927 32.23ZM101.044 38.12C100.591 38.12 100.184 38.02 99.8242 37.82C99.4642 37.6133 99.1775 37.32 98.9642 36.94C98.7575 36.5533 98.6542 36.09 98.6542 35.55C98.6542 35.0033 98.7675 34.54 98.9942 34.16C99.2208 33.7733 99.5208 33.48 99.8942 33.28C100.274 33.0733 100.681 32.97 101.114 32.97C101.428 32.97 101.701 33.0233 101.934 33.13C102.174 33.23 102.381 33.36 102.554 33.52L102.004 34.24C101.898 34.14 101.774 34.06 101.634 34C101.501 33.94 101.348 33.91 101.174 33.91C100.914 33.91 100.684 33.98 100.484 34.12C100.284 34.2533 100.124 34.4433 100.004 34.69C99.8908 34.93 99.8342 35.2167 99.8342 35.55C99.8342 35.8767 99.8908 36.1633 100.004 36.41C100.118 36.65 100.271 36.84 100.464 36.98C100.664 37.1133 100.894 37.18 101.154 37.18C101.348 37.18 101.528 37.1433 101.694 37.07C101.868 36.9967 102.021 36.9033 102.154 36.79L102.624 37.5C102.418 37.6867 102.178 37.8367 101.904 37.95C101.638 38.0633 101.351 38.12 101.044 38.12ZM106.695 38L104.985 33.09H106.155L106.935 35.64C107.002 35.8733 107.069 36.1167 107.135 36.37C107.209 36.6167 107.279 36.8667 107.345 37.12H107.385C107.459 36.8667 107.529 36.6167 107.595 36.37C107.669 36.1167 107.739 35.8733 107.805 35.64L108.585 33.09H109.695L108.025 38H106.695ZM111.541 38.12C111.254 38.12 111.001 38.06 110.781 37.94C110.561 37.82 110.388 37.6533 110.261 37.44C110.141 37.22 110.081 36.9667 110.081 36.68C110.081 36.1267 110.311 35.71 110.771 35.43C111.238 35.1433 111.974 34.9467 112.981 34.84C112.974 34.6733 112.941 34.52 112.881 34.38C112.828 34.24 112.734 34.13 112.601 34.05C112.474 33.9633 112.301 33.92 112.081 33.92C111.841 33.92 111.604 33.9633 111.371 34.05C111.144 34.1367 110.921 34.2467 110.701 34.38L110.281 33.6C110.461 33.4867 110.658 33.3833 110.871 33.29C111.084 33.19 111.311 33.1133 111.551 33.06C111.791 33 112.041 32.97 112.301 32.97C112.708 32.97 113.044 33.0533 113.311 33.22C113.584 33.38 113.788 33.62 113.921 33.94C114.061 34.2533 114.131 34.64 114.131 35.1V38H113.181L113.101 37.46H113.061C112.834 37.6467 112.598 37.8033 112.351 37.93C112.104 38.0567 111.834 38.12 111.541 38.12ZM111.901 37.18C112.101 37.18 112.284 37.14 112.451 37.06C112.624 36.9733 112.801 36.8467 112.981 36.68V35.64C112.534 35.6933 112.181 35.7633 111.921 35.85C111.661 35.9367 111.474 36.0433 111.361 36.17C111.254 36.29 111.201 36.4333 111.201 36.6C111.201 36.8067 111.268 36.9567 111.401 37.05C111.534 37.1367 111.701 37.18 111.901 37.18ZM116.627 38.1C116.354 38.1 116.134 38.0467 115.967 37.94C115.807 37.8267 115.691 37.6667 115.617 37.46C115.544 37.2533 115.507 37.0067 115.507 36.72V30.94H116.657V36.78C116.657 36.9267 116.684 37.0267 116.737 37.08C116.791 37.1333 116.851 37.16 116.917 37.16C116.944 37.16 116.967 37.16 116.987 37.16C117.014 37.1533 117.047 37.1467 117.087 37.14L117.237 38C117.171 38.0267 117.084 38.05 116.977 38.07C116.877 38.09 116.761 38.1 116.627 38.1ZM119.682 38.12C119.156 38.12 118.772 37.95 118.532 37.61C118.292 37.27 118.172 36.79 118.172 36.17V33.09H119.322V36.02C119.322 36.4267 119.382 36.7133 119.502 36.88C119.622 37.0467 119.816 37.13 120.082 37.13C120.296 37.13 120.482 37.0767 120.642 36.97C120.809 36.8633 120.986 36.69 121.172 36.45V33.09H122.322V38H121.382L121.292 37.28H121.262C121.049 37.5333 120.816 37.7367 120.562 37.89C120.309 38.0433 120.016 38.12 119.682 38.12ZM125.889 38.12C125.429 38.12 125.012 38.02 124.639 37.82C124.272 37.6133 123.982 37.32 123.769 36.94C123.556 36.5533 123.449 36.0867 123.449 35.54C123.449 35.0067 123.559 34.55 123.779 34.17C123.999 33.7833 124.282 33.4867 124.629 33.28C124.976 33.0733 125.342 32.97 125.729 32.97C126.176 32.97 126.549 33.07 126.849 33.27C127.149 33.47 127.372 33.7467 127.519 34.1C127.672 34.4467 127.749 34.8467 127.749 35.3C127.749 35.4067 127.742 35.51 127.729 35.61C127.722 35.71 127.709 35.8067 127.689 35.9H124.309V35.02H126.729C126.729 34.6667 126.649 34.39 126.489 34.19C126.329 33.9833 126.082 33.88 125.749 33.88C125.562 33.88 125.379 33.93 125.199 34.03C125.026 34.13 124.879 34.3 124.759 34.54C124.646 34.78 124.589 35.1133 124.589 35.54C124.589 35.9267 124.656 36.2433 124.789 36.49C124.922 36.73 125.099 36.91 125.319 37.03C125.539 37.1433 125.776 37.2 126.029 37.2C126.242 37.2 126.442 37.17 126.629 37.11C126.822 37.05 127.002 36.9667 127.169 36.86L127.569 37.6C127.342 37.76 127.082 37.8867 126.789 37.98C126.502 38.0733 126.202 38.12 125.889 38.12Z" fill="#F9AA33"/>
</svg>
