<svg width="164" height="42" viewBox="0 0 164 42" fill="none" xmlns="http://www.w3.org/2000/svg">
<rect width="164" height="42" fill="#344955"/>
<path d="M20.761 27L16.901 13.96H20.021L21.501 20.04C21.621 20.5067 21.7343 20.9733 21.841 21.44C21.961 21.9067 22.0743 22.3667 22.181 22.82C22.301 23.2733 22.4277 23.74 22.561 24.22H22.641C22.761 23.74 22.8743 23.2733 22.981 22.82C23.0877 22.3667 23.201 21.9067 23.321 21.44C23.441 20.9733 23.561 20.5067 23.681 20.04L25.301 13.96H28.301L24.301 27H20.761ZM31.2512 27.24C30.6512 27.24 30.1245 27.1067 29.6712 26.84C29.2312 26.5733 28.8912 26.2133 28.6512 25.76C28.4112 25.3067 28.2912 24.8 28.2912 24.24C28.2912 23.1733 28.7312 22.3533 29.6112 21.78C30.4912 21.1933 31.9112 20.8 33.8712 20.6C33.8578 20.3067 33.7912 20.06 33.6712 19.86C33.5645 19.6467 33.3978 19.4867 33.1712 19.38C32.9445 19.26 32.6578 19.2 32.3112 19.2C31.8978 19.2 31.4778 19.2733 31.0512 19.42C30.6245 19.5667 30.1645 19.78 29.6712 20.06L28.6312 18.14C29.0578 17.8733 29.4978 17.6467 29.9512 17.46C30.4045 17.26 30.8712 17.1067 31.3512 17C31.8445 16.8933 32.3512 16.84 32.8712 16.84C33.7245 16.84 34.4378 17.0067 35.0112 17.34C35.5978 17.66 36.0445 18.1533 36.3512 18.82C36.6578 19.4733 36.8112 20.3133 36.8112 21.34V27H34.4112L34.2112 25.98H34.1312C33.7045 26.3533 33.2578 26.66 32.7912 26.9C32.3245 27.1267 31.8112 27.24 31.2512 27.24ZM32.2312 24.94C32.5645 24.94 32.8578 24.8667 33.1112 24.72C33.3645 24.5733 33.6178 24.3733 33.8712 24.12V22.44C33.1778 22.5333 32.6245 22.6533 32.2112 22.8C31.8112 22.9467 31.5245 23.1267 31.3512 23.34C31.1912 23.54 31.1112 23.7667 31.1112 24.02C31.1112 24.3267 31.2112 24.56 31.4112 24.72C31.6245 24.8667 31.8978 24.94 32.2312 24.94ZM41.998 27.22C41.3314 27.22 40.798 27.0867 40.398 26.82C40.0114 26.54 39.7314 26.1533 39.558 25.66C39.3847 25.1533 39.298 24.5667 39.298 23.9V13H42.238V24.02C42.238 24.34 42.2914 24.56 42.398 24.68C42.518 24.7867 42.6447 24.84 42.778 24.84C42.8314 24.84 42.878 24.84 42.918 24.84C42.9714 24.8267 43.038 24.8133 43.118 24.8L43.478 26.98C43.318 27.0467 43.1114 27.1 42.858 27.14C42.618 27.1933 42.3314 27.22 41.998 27.22ZM48.0007 27.24C46.9207 27.24 46.134 26.8867 45.6407 26.18C45.1607 25.46 44.9207 24.48 44.9207 23.24V17.08H47.8607V22.86C47.8607 23.58 47.9607 24.0733 48.1607 24.34C48.3607 24.6067 48.674 24.74 49.1007 24.74C49.4607 24.74 49.774 24.6533 50.0407 24.48C50.3074 24.3067 50.5807 24.0267 50.8607 23.64V17.08H53.8007V27H51.4007L51.1807 25.62H51.1207C50.7074 26.1133 50.254 26.5067 49.7607 26.8C49.2674 27.0933 48.6807 27.24 48.0007 27.24ZM58.8879 27.24C58.2879 27.24 57.7612 27.1067 57.3079 26.84C56.8679 26.5733 56.5279 26.2133 56.2879 25.76C56.0479 25.3067 55.9279 24.8 55.9279 24.24C55.9279 23.1733 56.3679 22.3533 57.2479 21.78C58.1279 21.1933 59.5479 20.8 61.5079 20.6C61.4946 20.3067 61.4279 20.06 61.3079 19.86C61.2012 19.6467 61.0346 19.4867 60.8079 19.38C60.5812 19.26 60.2946 19.2 59.9479 19.2C59.5346 19.2 59.1146 19.2733 58.6879 19.42C58.2612 19.5667 57.8012 19.78 57.3079 20.06L56.2679 18.14C56.6946 17.8733 57.1346 17.6467 57.5879 17.46C58.0412 17.26 58.5079 17.1067 58.9879 17C59.4812 16.8933 59.9879 16.84 60.5079 16.84C61.3612 16.84 62.0746 17.0067 62.6479 17.34C63.2346 17.66 63.6812 18.1533 63.9879 18.82C64.2946 19.4733 64.4479 20.3133 64.4479 21.34V27H62.0479L61.8479 25.98H61.7679C61.3412 26.3533 60.8946 26.66 60.4279 26.9C59.9612 27.1267 59.4479 27.24 58.8879 27.24ZM59.8679 24.94C60.2012 24.94 60.4946 24.8667 60.7479 24.72C61.0012 24.5733 61.2546 24.3733 61.5079 24.12V22.44C60.8146 22.5333 60.2612 22.6533 59.8479 22.8C59.4479 22.9467 59.1612 23.1267 58.9879 23.34C58.8279 23.54 58.7479 23.7667 58.7479 24.02C58.7479 24.3267 58.8479 24.56 59.0479 24.72C59.2612 24.8667 59.5346 24.94 59.8679 24.94ZM70.4032 27.22C69.1765 27.22 68.2965 26.8667 67.7632 26.16C67.2299 25.44 66.9632 24.5133 66.9632 23.38V19.38H65.6232V17.2L67.1432 17.08L67.4832 14.04H69.9232V17.08H72.3032V19.38H69.9232V23.34C69.9232 23.9 70.0365 24.3067 70.2632 24.56C70.5032 24.8 70.8165 24.92 71.2032 24.92C71.3632 24.92 71.5232 24.9067 71.6832 24.88C71.8432 24.8533 71.9965 24.8133 72.1432 24.76L72.6232 26.82C72.3699 26.9267 72.0499 27.02 71.6632 27.1C71.2899 27.18 70.8699 27.22 70.4032 27.22ZM74.2395 27V17.08H77.1795V27H74.2395ZM75.6995 15.62C75.2061 15.62 74.8061 15.48 74.4995 15.2C74.1928 14.92 74.0395 14.5467 74.0395 14.08C74.0395 13.6133 74.1928 13.24 74.4995 12.96C74.8061 12.68 75.2061 12.54 75.6995 12.54C76.1928 12.54 76.5928 12.68 76.8995 12.96C77.2061 13.24 77.3595 13.6133 77.3595 14.08C77.3595 14.5467 77.2061 14.92 76.8995 15.2C76.5928 15.48 76.1928 15.62 75.6995 15.62ZM84.0268 27.24C83.1868 27.24 82.4001 27.04 81.6668 26.64C80.9335 26.2267 80.3335 25.6333 79.8668 24.86C79.4135 24.0733 79.1868 23.1333 79.1868 22.04C79.1868 20.9467 79.4135 20.0133 79.8668 19.24C80.3335 18.4533 80.9335 17.86 81.6668 17.46C82.4001 17.0467 83.1868 16.84 84.0268 16.84C84.8535 16.84 85.6335 17.0467 86.3668 17.46C87.1001 17.86 87.6935 18.4533 88.1468 19.24C88.6135 20.0133 88.8468 20.9467 88.8468 22.04C88.8468 23.1333 88.6135 24.0733 88.1468 24.86C87.6935 25.6333 87.1001 26.2267 86.3668 26.64C85.6335 27.04 84.8535 27.24 84.0268 27.24ZM84.0268 24.86C84.4268 24.86 84.7601 24.7467 85.0268 24.52C85.3068 24.2933 85.5135 23.9667 85.6468 23.54C85.7801 23.1133 85.8468 22.6133 85.8468 22.04C85.8468 21.4667 85.7801 20.9667 85.6468 20.54C85.5135 20.1133 85.3068 19.7867 85.0268 19.56C84.7601 19.3333 84.4268 19.22 84.0268 19.22C83.6135 19.22 83.2735 19.3333 83.0068 19.56C82.7401 19.7867 82.5401 20.1133 82.4068 20.54C82.2735 20.9667 82.2068 21.4667 82.2068 22.04C82.2068 22.6133 82.2735 23.1133 82.4068 23.54C82.5401 23.9667 82.7401 24.2933 83.0068 24.52C83.2735 24.7467 83.6135 24.86 84.0268 24.86ZM90.8605 27V17.08H93.2605L93.4605 18.34H93.5405C93.9539 17.9267 94.4205 17.5733 94.9405 17.28C95.4605 16.9867 96.0539 16.84 96.7205 16.84C97.8139 16.84 98.6005 17.2 99.0805 17.92C99.5605 18.6267 99.8005 19.6 99.8005 20.84V27H96.8605V21.22C96.8605 20.5 96.7605 20.0067 96.5605 19.74C96.3739 19.4733 96.0672 19.34 95.6405 19.34C95.2672 19.34 94.9472 19.4267 94.6805 19.6C94.4139 19.76 94.1205 19.9933 93.8005 20.3V27H90.8605ZM105.226 27.24C104.573 27.24 103.899 27.1133 103.206 26.86C102.513 26.6067 101.919 26.24 101.426 25.76L102.666 24.1C103.119 24.46 103.566 24.7133 104.006 24.86C104.459 24.9933 104.893 25.06 105.306 25.06C105.746 25.06 106.066 24.9867 106.266 24.84C106.466 24.68 106.566 24.4733 106.566 24.22C106.566 23.9933 106.473 23.8067 106.286 23.66C106.113 23.5133 105.879 23.3867 105.586 23.28C105.306 23.16 104.986 23.0333 104.626 22.9C104.146 22.7267 103.706 22.5067 103.306 22.24C102.906 21.9733 102.579 21.6533 102.326 21.28C102.086 20.9067 101.966 20.46 101.966 19.94C101.966 19.0067 102.313 18.26 103.006 17.7C103.713 17.1267 104.633 16.84 105.766 16.84C106.486 16.84 107.139 16.96 107.726 17.2C108.326 17.4267 108.839 17.7267 109.266 18.1L108.006 19.74C107.646 19.4867 107.286 19.3067 106.926 19.2C106.566 19.08 106.213 19.02 105.866 19.02C105.479 19.02 105.193 19.0933 105.006 19.24C104.819 19.3867 104.726 19.5733 104.726 19.8C104.726 19.9867 104.793 20.1467 104.926 20.28C105.059 20.4133 105.259 20.54 105.526 20.66C105.806 20.7667 106.153 20.8867 106.566 21.02C107.073 21.1933 107.533 21.4133 107.946 21.68C108.373 21.9333 108.706 22.2533 108.946 22.64C109.186 23.0267 109.306 23.4933 109.306 24.04C109.306 24.64 109.146 25.18 108.826 25.66C108.519 26.14 108.066 26.5267 107.466 26.82C106.866 27.1 106.119 27.24 105.226 27.24Z" fill="#F9AA33"/>
<path d="M112.513 27L110.153 13.96H113.213L114.073 20.04C114.166 20.7333 114.253 21.4267 114.333 22.12C114.426 22.8 114.506 23.5 114.573 24.22H114.653C114.773 23.5 114.893 22.7933 115.013 22.1C115.146 21.4067 115.28 20.72 115.413 20.04L116.793 13.96H119.413L120.733 20.04C120.866 20.7067 121 21.3933 121.133 22.1C121.266 22.7933 121.393 23.5 121.513 24.22H121.593C121.66 23.5 121.733 22.7933 121.813 22.1C121.906 21.4067 121.993 20.72 122.073 20.04L122.993 13.96H125.873L123.533 27H119.733L118.513 21.08C118.42 20.5867 118.333 20.08 118.253 19.56C118.173 19.04 118.1 18.52 118.033 18H117.953C117.886 18.52 117.813 19.04 117.733 19.56C117.666 20.08 117.58 20.5867 117.473 21.08L116.253 27H112.513ZM131.883 27.24C130.936 27.24 130.083 27.0333 129.323 26.62C128.563 26.2067 127.963 25.6133 127.523 24.84C127.083 24.0667 126.863 23.1333 126.863 22.04C126.863 20.96 127.083 20.0333 127.523 19.26C127.976 18.4867 128.563 17.8933 129.283 17.48C130.003 17.0533 130.756 16.84 131.543 16.84C132.489 16.84 133.276 17.0533 133.903 17.48C134.529 17.8933 134.996 18.46 135.303 19.18C135.609 19.9 135.763 20.7067 135.763 21.6C135.763 21.8533 135.749 22.1067 135.723 22.36C135.696 22.6 135.669 22.7933 135.643 22.94H129.143L129.103 20.9H133.243C133.243 20.38 133.116 19.9533 132.863 19.62C132.609 19.2733 132.189 19.1 131.603 19.1C131.283 19.1 130.969 19.1867 130.663 19.36C130.356 19.5333 130.103 19.8333 129.903 20.26C129.703 20.6867 129.609 21.28 129.623 22.04C129.636 22.7867 129.769 23.3733 130.023 23.8C130.289 24.2267 130.623 24.5333 131.023 24.72C131.423 24.8933 131.843 24.98 132.283 24.98C132.669 24.98 133.036 24.9267 133.383 24.82C133.743 24.7 134.096 24.54 134.443 24.34L135.403 26.14C134.909 26.4867 134.349 26.76 133.723 26.96C133.096 27.1467 132.483 27.24 131.883 27.24ZM142.994 27.24C142.554 27.24 142.114 27.1333 141.674 26.92C141.234 26.6933 140.814 26.3667 140.414 25.94H140.334L140.094 27H137.794V12.98H140.734V16.42L140.654 17.94C141.027 17.5933 141.441 17.3267 141.894 17.14C142.347 16.94 142.807 16.84 143.274 16.84C144.074 16.84 144.767 17.0467 145.354 17.46C145.941 17.8733 146.387 18.46 146.694 19.22C147.014 19.9667 147.174 20.8467 147.174 21.86C147.174 22.9933 146.974 23.9667 146.574 24.78C146.174 25.58 145.654 26.1933 145.014 26.62C144.387 27.0333 143.714 27.24 142.994 27.24ZM142.314 24.84C142.647 24.84 142.954 24.74 143.234 24.54C143.527 24.34 143.754 24.0267 143.914 23.6C144.074 23.16 144.154 22.6 144.154 21.92C144.154 21.32 144.087 20.8267 143.954 20.44C143.834 20.04 143.647 19.74 143.394 19.54C143.141 19.34 142.821 19.24 142.434 19.24C142.141 19.24 141.854 19.3133 141.574 19.46C141.307 19.5933 141.027 19.82 140.734 20.14V24.2C140.987 24.4267 141.254 24.5933 141.534 24.7C141.814 24.7933 142.074 24.84 142.314 24.84Z" fill="white"/>
<circle cx="76" cy="14" r="2" fill="#F9AA33"/>
<circle cx="82" cy="10" r="2" fill="#F9AA33"/>
<circle cx="88" cy="14" r="2" fill="#F9AA33"/>
<circle cx="93" cy="9" r="2" fill="#F9AA33"/>
<line x1="76.6799" y1="14.0973" x2="82.0575" y2="9.61604" stroke="#F9AA33"/>
<line x1="87.6306" y1="14.1445" x2="92.6306" y2="8.66304" stroke="#F9AA33"/>
<line x1="82.3201" y1="9.61589" x2="88.3201" y2="14.6159" stroke="#F9AA33"/>
<path d="M29.2962 38V32.58C29.2962 32.24 29.3495 31.9367 29.4562 31.67C29.5695 31.4033 29.7462 31.1967 29.9862 31.05C30.2262 30.8967 30.5395 30.82 30.9262 30.82C31.1062 30.82 31.2729 30.8367 31.4262 30.87C31.5862 30.9033 31.7195 30.9433 31.8262 30.99L31.5862 31.82C31.4129 31.76 31.2395 31.73 31.0662 31.73C30.8662 31.73 30.7129 31.7967 30.6062 31.93C30.4995 32.0633 30.4462 32.2733 30.4462 32.56V38H29.2962ZM28.5662 34V33.14L29.3662 33.09H31.4062V34H28.5662ZM32.27 38V33.09H33.42V38H32.27ZM32.84 32.23C32.64 32.23 32.4734 32.17 32.34 32.05C32.2134 31.93 32.15 31.77 32.15 31.57C32.15 31.37 32.2134 31.2133 32.34 31.1C32.4734 30.98 32.64 30.92 32.84 30.92C33.0467 30.92 33.2134 30.98 33.34 31.1C33.4667 31.2133 33.53 31.37 33.53 31.57C33.53 31.77 33.4667 31.93 33.34 32.05C33.2134 32.17 33.0467 32.23 32.84 32.23ZM34.8872 38V33.09H35.8372L35.9172 33.75H35.9572C36.1772 33.5367 36.4172 33.3533 36.6772 33.2C36.9372 33.0467 37.2339 32.97 37.5672 32.97C38.0939 32.97 38.4772 33.14 38.7172 33.48C38.9572 33.82 39.0772 34.3 39.0772 34.92V38H37.9272V35.07C37.9272 34.6633 37.8672 34.3767 37.7472 34.21C37.6272 34.0433 37.4306 33.96 37.1572 33.96C36.9439 33.96 36.7539 34.0133 36.5872 34.12C36.4272 34.22 36.2439 34.37 36.0372 34.57V38H34.8872ZM42.2029 38.12C41.5896 38.12 41.0996 37.8933 40.7329 37.44C40.3663 36.9867 40.1829 36.3567 40.1829 35.55C40.1829 35.0167 40.2796 34.5567 40.4729 34.17C40.6729 33.7833 40.9296 33.4867 41.2429 33.28C41.5629 33.0733 41.9029 32.97 42.2629 32.97C42.5429 32.97 42.7796 33.0167 42.9729 33.11C43.1729 33.2033 43.3663 33.3367 43.5529 33.51L43.5129 32.72V30.94H44.6629V38H43.7129L43.6329 37.47H43.5929C43.4129 37.65 43.2029 37.8033 42.9629 37.93C42.7229 38.0567 42.4696 38.12 42.2029 38.12ZM42.4829 37.17C42.6763 37.17 42.8563 37.1267 43.0229 37.04C43.1896 36.9467 43.3529 36.8067 43.5129 36.62V34.33C43.3463 34.1767 43.1796 34.07 43.0129 34.01C42.8463 33.95 42.6796 33.92 42.5129 33.92C42.2996 33.92 42.1063 33.9833 41.9329 34.11C41.7663 34.2367 41.6296 34.42 41.5229 34.66C41.4229 34.9 41.3729 35.1933 41.3729 35.54C41.3729 36.0667 41.4696 36.47 41.6629 36.75C41.8563 37.03 42.1296 37.17 42.4829 37.17ZM46.1275 38V33.09H47.2775V38H46.1275ZM46.6975 32.23C46.4975 32.23 46.3308 32.17 46.1975 32.05C46.0708 31.93 46.0075 31.77 46.0075 31.57C46.0075 31.37 46.0708 31.2133 46.1975 31.1C46.3308 30.98 46.4975 30.92 46.6975 30.92C46.9041 30.92 47.0708 30.98 47.1975 31.1C47.3241 31.2133 47.3875 31.37 47.3875 31.57C47.3875 31.77 47.3241 31.93 47.1975 32.05C47.0708 32.17 46.9041 32.23 46.6975 32.23ZM48.7446 38V33.09H49.6946L49.7746 33.75H49.8146C50.0346 33.5367 50.2746 33.3533 50.5346 33.2C50.7946 33.0467 51.0913 32.97 51.4246 32.97C51.9513 32.97 52.3346 33.14 52.5746 33.48C52.8146 33.82 52.9346 34.3 52.9346 34.92V38H51.7846V35.07C51.7846 34.6633 51.7246 34.3767 51.6046 34.21C51.4846 34.0433 51.288 33.96 51.0146 33.96C50.8013 33.96 50.6113 34.0133 50.4446 34.12C50.2846 34.22 50.1013 34.37 49.8946 34.57V38H48.7446ZM56.0504 40.17C55.657 40.17 55.307 40.1233 55.0004 40.03C54.6937 39.9367 54.4504 39.7933 54.2704 39.6C54.097 39.4133 54.0104 39.1767 54.0104 38.89C54.0104 38.6833 54.0704 38.49 54.1904 38.31C54.317 38.1367 54.4904 37.98 54.7104 37.84V37.8C54.5904 37.72 54.487 37.6133 54.4004 37.48C54.3137 37.3467 54.2704 37.18 54.2704 36.98C54.2704 36.7933 54.3237 36.62 54.4304 36.46C54.5437 36.3 54.6704 36.17 54.8104 36.07V36.03C54.6437 35.9033 54.4937 35.7267 54.3604 35.5C54.2337 35.2733 54.1704 35.0167 54.1704 34.73C54.1704 34.3567 54.2604 34.04 54.4404 33.78C54.6204 33.5133 54.857 33.3133 55.1504 33.18C55.4437 33.04 55.7637 32.97 56.1104 32.97C56.2437 32.97 56.3737 32.98 56.5004 33C56.627 33.02 56.737 33.05 56.8304 33.09H58.5904V33.94H57.6704V33.98C57.7637 34.08 57.837 34.1967 57.8904 34.33C57.9437 34.4567 57.9704 34.6067 57.9704 34.78C57.9704 35.14 57.887 35.4433 57.7204 35.69C57.5537 35.9367 57.3304 36.1233 57.0504 36.25C56.7704 36.3767 56.457 36.44 56.1104 36.44C56.0037 36.44 55.8937 36.43 55.7804 36.41C55.667 36.39 55.5537 36.3567 55.4404 36.31C55.3737 36.3767 55.317 36.4433 55.2704 36.51C55.2237 36.5767 55.2004 36.6667 55.2004 36.78C55.2004 36.92 55.2604 37.03 55.3804 37.11C55.5004 37.19 55.707 37.23 56.0004 37.23H56.8704C57.4637 37.23 57.9104 37.3267 58.2104 37.52C58.517 37.7067 58.6704 38.0133 58.6704 38.44C58.6704 38.76 58.5637 39.05 58.3504 39.31C58.137 39.5767 57.8337 39.7867 57.4404 39.94C57.047 40.0933 56.5837 40.17 56.0504 40.17ZM56.1104 35.72C56.2637 35.72 56.4037 35.6833 56.5304 35.61C56.6637 35.53 56.767 35.4167 56.8404 35.27C56.9204 35.1167 56.9604 34.9367 56.9604 34.73C56.9604 34.4167 56.877 34.1767 56.7104 34.01C56.5504 33.8433 56.3504 33.76 56.1104 33.76C55.8704 33.76 55.667 33.8433 55.5004 34.01C55.3337 34.1767 55.2504 34.4167 55.2504 34.73C55.2504 34.9367 55.2904 35.1167 55.3704 35.27C55.4504 35.4167 55.5537 35.53 55.6804 35.61C55.807 35.6833 55.9504 35.72 56.1104 35.72ZM56.2304 39.42C56.4904 39.42 56.7204 39.3833 56.9204 39.31C57.1204 39.2433 57.277 39.1467 57.3904 39.02C57.5037 38.9 57.5604 38.77 57.5604 38.63C57.5604 38.4367 57.4837 38.3067 57.3304 38.24C57.1837 38.1733 56.9704 38.14 56.6904 38.14H56.0204C55.887 38.14 55.767 38.1333 55.6604 38.12C55.5537 38.1067 55.4504 38.09 55.3504 38.07C55.2237 38.17 55.127 38.2733 55.0604 38.38C55.0004 38.4867 54.9704 38.6 54.9704 38.72C54.9704 38.94 55.0837 39.11 55.3104 39.23C55.537 39.3567 55.8437 39.42 56.2304 39.42ZM63.2676 38.1C62.701 38.1 62.2976 37.9367 62.0576 37.61C61.8243 37.2767 61.7076 36.8467 61.7076 36.32V34H61.0076V33.14L61.7676 33.09L61.9076 31.55H62.8676V33.09H64.1176V34H62.8676V36.32C62.8676 36.6067 62.9243 36.8233 63.0376 36.97C63.151 37.11 63.3243 37.18 63.5576 37.18C63.6443 37.18 63.731 37.1733 63.8176 37.16C63.9043 37.1467 63.9876 37.12 64.0676 37.08L64.2776 37.89C64.151 37.95 64.001 38 63.8276 38.04C63.6543 38.08 63.4676 38.1 63.2676 38.1ZM65.1509 38V30.94H66.3009V32.76L66.2609 33.71C66.4676 33.5167 66.6976 33.3467 66.9509 33.2C67.2042 33.0467 67.4976 32.97 67.8309 32.97C68.3576 32.97 68.7409 33.14 68.9809 33.48C69.2209 33.82 69.3409 34.3 69.3409 34.92V38H68.1909V35.07C68.1909 34.6633 68.1309 34.3767 68.0109 34.21C67.8909 34.0433 67.6942 33.96 67.4209 33.96C67.2076 33.96 67.0176 34.0133 66.8509 34.12C66.6909 34.22 66.5076 34.37 66.3009 34.57V38H65.1509ZM72.8371 38.12C72.3771 38.12 71.9604 38.02 71.5871 37.82C71.2204 37.6133 70.9304 37.32 70.7171 36.94C70.5037 36.5533 70.3971 36.0867 70.3971 35.54C70.3971 35.0067 70.5071 34.55 70.7271 34.17C70.9471 33.7833 71.2304 33.4867 71.5771 33.28C71.9237 33.0733 72.2904 32.97 72.6771 32.97C73.1237 32.97 73.4971 33.07 73.7971 33.27C74.0971 33.47 74.3204 33.7467 74.4671 34.1C74.6204 34.4467 74.6971 34.8467 74.6971 35.3C74.6971 35.4067 74.6904 35.51 74.6771 35.61C74.6704 35.71 74.6571 35.8067 74.6371 35.9H71.2571V35.02H73.6771C73.6771 34.6667 73.5971 34.39 73.4371 34.19C73.2771 33.9833 73.0304 33.88 72.6971 33.88C72.5104 33.88 72.3271 33.93 72.1471 34.03C71.9737 34.13 71.8271 34.3 71.7071 34.54C71.5937 34.78 71.5371 35.1133 71.5371 35.54C71.5371 35.9267 71.6037 36.2433 71.7371 36.49C71.8704 36.73 72.0471 36.91 72.2671 37.03C72.4871 37.1433 72.7237 37.2 72.9771 37.2C73.1904 37.2 73.3904 37.17 73.5771 37.11C73.7704 37.05 73.9504 36.9667 74.1171 36.86L74.5171 37.6C74.2904 37.76 74.0304 37.8867 73.7371 37.98C73.4504 38.0733 73.1504 38.12 72.8371 38.12ZM77.7974 38V33.09H78.9474V38H77.7974ZM78.3674 32.23C78.1674 32.23 78.0007 32.17 77.8674 32.05C77.7407 31.93 77.6774 31.77 77.6774 31.57C77.6774 31.37 77.7407 31.2133 77.8674 31.1C78.0007 30.98 78.1674 30.92 78.3674 30.92C78.574 30.92 78.7407 30.98 78.8674 31.1C78.994 31.2133 79.0574 31.37 79.0574 31.57C79.0574 31.77 78.994 31.93 78.8674 32.05C78.7407 32.17 78.574 32.23 78.3674 32.23ZM80.4146 38V33.09H81.3646L81.4446 33.75H81.4846C81.7046 33.5367 81.9446 33.3533 82.2046 33.2C82.4646 33.0467 82.7612 32.97 83.0946 32.97C83.6212 32.97 84.0046 33.14 84.2446 33.48C84.4846 33.82 84.6046 34.3 84.6046 34.92V38H83.4546V35.07C83.4546 34.6633 83.3946 34.3767 83.2746 34.21C83.1546 34.0433 82.9579 33.96 82.6846 33.96C82.4712 33.96 82.2812 34.0133 82.1146 34.12C81.9546 34.22 81.7712 34.37 81.5646 34.57V38H80.4146ZM87.7403 38.1C87.1736 38.1 86.7703 37.9367 86.5303 37.61C86.2969 37.2767 86.1803 36.8467 86.1803 36.32V34H85.4803V33.14L86.2403 33.09L86.3803 31.55H87.3403V33.09H88.5903V34H87.3403V36.32C87.3403 36.6067 87.3969 36.8233 87.5103 36.97C87.6236 37.11 87.7969 37.18 88.0303 37.18C88.1169 37.18 88.2036 37.1733 88.2903 37.16C88.3769 37.1467 88.4603 37.12 88.5403 37.08L88.7503 37.89C88.6236 37.95 88.4736 38 88.3003 38.04C88.1269 38.08 87.9403 38.1 87.7403 38.1ZM89.6236 38V33.09H90.5736L90.6536 33.96H90.6936C90.8669 33.64 91.0736 33.3967 91.3136 33.23C91.5602 33.0567 91.8169 32.97 92.0836 32.97C92.2102 32.97 92.3169 32.9767 92.4036 32.99C92.4902 33.0033 92.5702 33.03 92.6436 33.07L92.4136 34.05C92.3336 34.03 92.2602 34.0167 92.1936 34.01C92.1269 33.9967 92.0402 33.99 91.9336 33.99C91.7402 33.99 91.5369 34.0667 91.3236 34.22C91.1102 34.3667 90.9269 34.6267 90.7736 35V38H89.6236ZM93.354 38V33.09H94.504V38H93.354ZM93.924 32.23C93.724 32.23 93.5574 32.17 93.424 32.05C93.2974 31.93 93.234 31.77 93.234 31.57C93.234 31.37 93.2974 31.2133 93.424 31.1C93.5574 30.98 93.724 30.92 93.924 30.92C94.1307 30.92 94.2974 30.98 94.424 31.1C94.5507 31.2133 94.614 31.37 94.614 31.57C94.614 31.77 94.5507 31.93 94.424 32.05C94.2974 32.17 94.1307 32.23 93.924 32.23ZM95.9712 38V33.09H96.9212L97.0012 33.75H97.0412C97.2612 33.5367 97.5012 33.3533 97.7612 33.2C98.0212 33.0467 98.3179 32.97 98.6512 32.97C99.1779 32.97 99.5612 33.14 99.8012 33.48C100.041 33.82 100.161 34.3 100.161 34.92V38H99.0112V35.07C99.0112 34.6633 98.9512 34.3767 98.8312 34.21C98.7112 34.0433 98.5145 33.96 98.2412 33.96C98.0279 33.96 97.8379 34.0133 97.6712 34.12C97.5112 34.22 97.3279 34.37 97.1212 34.57V38H95.9712ZM102.937 38.12C102.597 38.12 102.26 38.0567 101.927 37.93C101.6 37.8033 101.317 37.6267 101.077 37.4L101.587 36.74C101.807 36.92 102.03 37.05 102.257 37.13C102.484 37.21 102.724 37.25 102.977 37.25C103.244 37.25 103.44 37.1933 103.567 37.08C103.694 36.9667 103.757 36.8267 103.757 36.66C103.757 36.5267 103.707 36.4133 103.607 36.32C103.514 36.2267 103.39 36.1467 103.237 36.08C103.084 36.0133 102.914 35.9467 102.727 35.88C102.487 35.7933 102.264 35.69 102.057 35.57C101.85 35.4433 101.68 35.29 101.547 35.11C101.42 34.9233 101.357 34.7 101.357 34.44C101.357 34.0067 101.517 33.6533 101.837 33.38C102.157 33.1067 102.59 32.97 103.137 32.97C103.47 32.97 103.777 33.0267 104.057 33.14C104.337 33.2467 104.577 33.3867 104.777 33.56L104.267 34.21C104.094 34.0833 103.917 33.99 103.737 33.93C103.557 33.87 103.367 33.84 103.167 33.84C102.92 33.84 102.737 33.8933 102.617 34C102.497 34.1067 102.437 34.2333 102.437 34.38C102.437 34.5 102.474 34.6033 102.547 34.69C102.627 34.77 102.74 34.8433 102.887 34.91C103.034 34.97 103.21 35.0333 103.417 35.1C103.67 35.1867 103.907 35.2933 104.127 35.42C104.347 35.54 104.52 35.6967 104.647 35.89C104.78 36.0767 104.847 36.3133 104.847 36.6C104.847 36.88 104.774 37.1367 104.627 37.37C104.48 37.5967 104.264 37.78 103.977 37.92C103.697 38.0533 103.35 38.12 102.937 38.12ZM105.874 38V33.09H107.024V38H105.874ZM106.444 32.23C106.244 32.23 106.077 32.17 105.944 32.05C105.817 31.93 105.754 31.77 105.754 31.57C105.754 31.37 105.817 31.2133 105.944 31.1C106.077 30.98 106.244 30.92 106.444 30.92C106.65 30.92 106.817 30.98 106.944 31.1C107.07 31.2133 107.134 31.37 107.134 31.57C107.134 31.77 107.07 31.93 106.944 32.05C106.817 32.17 106.65 32.23 106.444 32.23ZM110.561 38.12C110.107 38.12 109.701 38.02 109.341 37.82C108.981 37.6133 108.694 37.32 108.481 36.94C108.274 36.5533 108.171 36.09 108.171 35.55C108.171 35.0033 108.284 34.54 108.511 34.16C108.737 33.7733 109.037 33.48 109.411 33.28C109.791 33.0733 110.197 32.97 110.631 32.97C110.944 32.97 111.217 33.0233 111.451 33.13C111.691 33.23 111.897 33.36 112.071 33.52L111.521 34.24C111.414 34.14 111.291 34.06 111.151 34C111.017 33.94 110.864 33.91 110.691 33.91C110.431 33.91 110.201 33.98 110.001 34.12C109.801 34.2533 109.641 34.4433 109.521 34.69C109.407 34.93 109.351 35.2167 109.351 35.55C109.351 35.8767 109.407 36.1633 109.521 36.41C109.634 36.65 109.787 36.84 109.981 36.98C110.181 37.1133 110.411 37.18 110.671 37.18C110.864 37.18 111.044 37.1433 111.211 37.07C111.384 36.9967 111.537 36.9033 111.671 36.79L112.141 37.5C111.934 37.6867 111.694 37.8367 111.421 37.95C111.154 38.0633 110.867 38.12 110.561 38.12ZM116.212 38L114.502 33.09H115.672L116.452 35.64C116.519 35.8733 116.585 36.1167 116.652 36.37C116.725 36.6167 116.795 36.8667 116.862 37.12H116.902C116.975 36.8667 117.045 36.6167 117.112 36.37C117.185 36.1167 117.255 35.8733 117.322 35.64L118.102 33.09H119.212L117.542 38H116.212ZM121.058 38.12C120.771 38.12 120.518 38.06 120.298 37.94C120.078 37.82 119.904 37.6533 119.778 37.44C119.658 37.22 119.598 36.9667 119.598 36.68C119.598 36.1267 119.828 35.71 120.288 35.43C120.754 35.1433 121.491 34.9467 122.498 34.84C122.491 34.6733 122.458 34.52 122.398 34.38C122.344 34.24 122.251 34.13 122.118 34.05C121.991 33.9633 121.818 33.92 121.598 33.92C121.358 33.92 121.121 33.9633 120.888 34.05C120.661 34.1367 120.438 34.2467 120.218 34.38L119.798 33.6C119.978 33.4867 120.174 33.3833 120.388 33.29C120.601 33.19 120.828 33.1133 121.068 33.06C121.308 33 121.558 32.97 121.818 32.97C122.224 32.97 122.561 33.0533 122.828 33.22C123.101 33.38 123.304 33.62 123.438 33.94C123.578 34.2533 123.648 34.64 123.648 35.1V38H122.698L122.618 37.46H122.578C122.351 37.6467 122.114 37.8033 121.868 37.93C121.621 38.0567 121.351 38.12 121.058 38.12ZM121.418 37.18C121.618 37.18 121.801 37.14 121.968 37.06C122.141 36.9733 122.318 36.8467 122.498 36.68V35.64C122.051 35.6933 121.698 35.7633 121.438 35.85C121.178 35.9367 120.991 36.0433 120.878 36.17C120.771 36.29 120.718 36.4333 120.718 36.6C120.718 36.8067 120.784 36.9567 120.918 37.05C121.051 37.1367 121.218 37.18 121.418 37.18ZM126.144 38.1C125.871 38.1 125.651 38.0467 125.484 37.94C125.324 37.8267 125.207 37.6667 125.134 37.46C125.061 37.2533 125.024 37.0067 125.024 36.72V30.94H126.174V36.78C126.174 36.9267 126.201 37.0267 126.254 37.08C126.307 37.1333 126.367 37.16 126.434 37.16C126.461 37.16 126.484 37.16 126.504 37.16C126.531 37.1533 126.564 37.1467 126.604 37.14L126.754 38C126.687 38.0267 126.601 38.05 126.494 38.07C126.394 38.09 126.277 38.1 126.144 38.1ZM129.199 38.12C128.672 38.12 128.289 37.95 128.049 37.61C127.809 37.27 127.689 36.79 127.689 36.17V33.09H128.839V36.02C128.839 36.4267 128.899 36.7133 129.019 36.88C129.139 37.0467 129.332 37.13 129.599 37.13C129.812 37.13 129.999 37.0767 130.159 36.97C130.325 36.8633 130.502 36.69 130.689 36.45V33.09H131.839V38H130.899L130.809 37.28H130.779C130.565 37.5333 130.332 37.7367 130.079 37.89C129.825 38.0433 129.532 38.12 129.199 38.12ZM135.405 38.12C134.945 38.12 134.529 38.02 134.155 37.82C133.789 37.6133 133.499 37.32 133.285 36.94C133.072 36.5533 132.965 36.0867 132.965 35.54C132.965 35.0067 133.075 34.55 133.295 34.17C133.515 33.7833 133.799 33.4867 134.145 33.28C134.492 33.0733 134.859 32.97 135.245 32.97C135.692 32.97 136.065 33.07 136.365 33.27C136.665 33.47 136.889 33.7467 137.035 34.1C137.189 34.4467 137.265 34.8467 137.265 35.3C137.265 35.4067 137.259 35.51 137.245 35.61C137.239 35.71 137.225 35.8067 137.205 35.9H133.825V35.02H136.245C136.245 34.6667 136.165 34.39 136.005 34.19C135.845 33.9833 135.599 33.88 135.265 33.88C135.079 33.88 134.895 33.93 134.715 34.03C134.542 34.13 134.395 34.3 134.275 34.54C134.162 34.78 134.105 35.1133 134.105 35.54C134.105 35.9267 134.172 36.2433 134.305 36.49C134.439 36.73 134.615 36.91 134.835 37.03C135.055 37.1433 135.292 37.2 135.545 37.2C135.759 37.2 135.959 37.17 136.145 37.11C136.339 37.05 136.519 36.9667 136.685 36.86L137.085 37.6C136.859 37.76 136.599 37.8867 136.305 37.98C136.019 38.0733 135.719 38.12 135.405 38.12Z" fill="#F9AA33"/>
</svg>
